<svg width="861" height="427" viewBox="0 0 861 427" fill="none" xmlns="http://www.w3.org/2000/svg">
<path d="M421.44 255.24V199.19H427.72L429.7 207.29H428.87V230.27H429.7V255.23H421.43L421.44 255.24ZM441.86 240.36C438.22 240.36 435.05 239.49 432.35 237.76C429.65 236.02 427.54 233.59 426.03 230.44C424.51 227.3 423.76 223.63 423.76 219.45C423.76 215.27 424.52 211.51 426.03 208.37C427.54 205.23 429.65 202.78 432.35 201.01C435.05 199.25 438.22 198.36 441.86 198.36C445.5 198.36 448.87 199.24 451.65 201.01C454.43 202.77 456.6 205.23 458.14 208.37C459.68 211.51 460.45 215.2 460.45 219.45C460.45 223.7 459.68 227.3 458.14 230.44C456.6 233.58 454.43 236.02 451.65 237.76C448.87 239.5 445.6 240.36 441.86 240.36ZM440.62 233.25C444.03 233.25 446.79 231.98 448.89 229.45C450.98 226.92 452.03 223.58 452.03 219.45C452.03 215.32 450.98 211.89 448.89 209.32C446.79 206.76 444.04 205.48 440.62 205.48C437.2 205.48 434.53 206.75 432.44 209.28C430.34 211.82 429.3 215.18 429.3 219.36C429.3 223.54 430.35 226.91 432.44 229.45C434.53 231.99 437.26 233.25 440.62 233.25Z" fill="#597CE9"/>
<path d="M483.11 199.2L485.09 210.11V239.54H476.82V199.2H483.1H483.11ZM483.85 213.5L481.87 212.59V206.56L482.61 205.65C483.16 204.66 484.03 203.6 485.21 202.47C486.39 201.34 487.79 200.38 489.38 199.58C490.98 198.78 492.6 198.38 494.26 198.38C495.09 198.38 495.87 198.44 496.61 198.55C497.36 198.66 497.92 198.85 498.31 199.13V206.57H495.75C492 206.57 489.27 207.14 487.56 208.26C485.85 209.39 484.61 211.14 483.84 213.51L483.85 213.5Z" fill="#597CE9"/>
<path d="M531.8 240.36C527.72 240.36 524.13 239.49 521.01 237.76C517.9 236.02 515.49 233.59 513.78 230.44C512.07 227.3 511.22 223.63 511.22 219.45C511.22 215.27 512.07 211.51 513.78 208.37C515.49 205.23 517.9 202.78 521.01 201.01C524.12 199.25 527.72 198.36 531.8 198.36C535.88 198.36 539.54 199.24 542.63 201.01C545.71 202.77 548.12 205.23 549.86 208.37C551.6 211.51 552.46 215.2 552.46 219.45C552.46 223.7 551.59 227.3 549.86 230.44C548.12 233.58 545.71 236.02 542.63 237.76C539.54 239.5 535.93 240.36 531.8 240.36ZM531.8 232.43C535.49 232.43 538.45 231.23 540.69 228.83C542.92 226.43 544.04 223.31 544.04 219.45C544.04 215.59 542.92 212.37 540.69 209.94C538.46 207.52 535.49 206.3 531.8 206.3C528.11 206.3 525.23 207.5 523 209.9C520.77 212.3 519.65 215.45 519.65 219.36C519.65 223.27 520.77 226.43 523 228.83C525.23 231.23 528.17 232.43 531.8 232.43Z" fill="#597CE9"/>
<path d="M566.1 206.8V199.19H589.16V206.8H566.1ZM583.79 240.28C580.26 240.28 577.47 239.25 575.4 237.18C573.33 235.11 572.3 231.9 572.3 227.55V199.2L573.87 190.11H580.56V227.72C580.56 229.26 580.96 230.42 581.76 231.19C582.56 231.96 583.57 232.35 584.78 232.35C585.72 232.35 586.54 232.3 587.26 232.19C587.98 232.08 588.61 231.94 589.16 231.78V239.47C588.44 239.69 587.66 239.88 586.8 240.05C585.94 240.22 584.94 240.3 583.78 240.3L583.79 240.28Z" fill="#597CE9"/>
<path d="M625.04 240.36C620.96 240.36 617.37 239.49 614.25 237.76C611.13 236.02 608.72 233.59 607.02 230.44C605.31 227.3 604.46 223.63 604.46 219.45C604.46 215.27 605.32 211.51 607.02 208.37C608.73 205.23 611.14 202.78 614.25 201.01C617.36 199.25 620.96 198.36 625.04 198.36C629.12 198.36 632.78 199.24 635.87 201.01C638.96 202.77 641.37 205.23 643.1 208.37C644.84 211.51 645.7 215.2 645.7 219.45C645.7 223.7 644.83 227.3 643.1 230.44C641.36 233.58 638.95 236.02 635.87 237.76C632.78 239.5 629.18 240.36 625.04 240.36ZM625.04 232.43C628.73 232.43 631.69 231.23 633.93 228.83C636.16 226.43 637.28 223.31 637.28 219.45C637.28 215.59 636.17 212.37 633.93 209.94C631.7 207.52 628.74 206.3 625.04 206.3C621.34 206.3 618.47 207.5 616.24 209.9C614.01 212.3 612.89 215.45 612.89 219.36C612.89 223.27 614.01 226.43 616.24 228.83C618.47 231.23 621.41 232.43 625.04 232.43Z" fill="#597CE9"/>
<path d="M679.93 240.36C675.8 240.36 672.21 239.46 669.18 237.67C666.15 235.88 663.81 233.41 662.15 230.27C660.5 227.13 659.67 223.49 659.67 219.36C659.67 215.23 660.5 211.59 662.15 208.45C663.8 205.31 666.14 202.84 669.18 201.05C672.21 199.26 675.79 198.36 679.93 198.36C683.84 198.36 687.4 199.42 690.59 201.54C693.78 203.66 696.1 206.49 697.53 210.01L689.68 213.32C688.8 211.01 687.47 209.26 685.71 208.07C683.94 206.89 681.93 206.29 679.67 206.29C676.37 206.29 673.61 207.43 671.4 209.72C669.2 212.01 668.1 215.22 668.1 219.35C668.1 223.48 669.2 226.69 671.4 228.98C673.6 231.27 676.36 232.41 679.67 232.41C681.93 232.41 683.94 231.82 685.71 230.63C687.47 229.45 688.8 227.7 689.68 225.38L697.53 228.69C696.04 232.22 693.71 235.04 690.54 237.16C687.37 239.28 683.83 240.34 679.92 240.34L679.93 240.36Z" fill="#597CE9"/>
<path d="M730.68 240.36C726.6 240.36 723.01 239.49 719.89 237.76C716.78 236.02 714.37 233.59 712.66 230.44C710.95 227.3 710.1 223.63 710.1 219.45C710.1 215.27 710.95 211.51 712.66 208.37C714.37 205.23 716.78 202.78 719.89 201.01C723 199.25 726.6 198.36 730.68 198.36C734.76 198.36 738.42 199.24 741.51 201.01C744.59 202.77 747 205.23 748.74 208.37C750.48 211.51 751.34 215.2 751.34 219.45C751.34 223.7 750.47 227.3 748.74 230.44C747 233.58 744.59 236.02 741.51 237.76C738.42 239.5 734.81 240.36 730.68 240.36ZM730.68 232.43C734.37 232.43 737.33 231.23 739.57 228.83C741.8 226.43 742.92 223.31 742.92 219.45C742.92 215.59 741.8 212.37 739.57 209.94C737.34 207.52 734.37 206.3 730.68 206.3C726.99 206.3 724.11 207.5 721.88 209.9C719.65 212.3 718.53 215.45 718.53 219.36C718.53 223.27 719.65 226.43 721.88 228.83C724.11 231.23 727.05 232.43 730.68 232.43Z" fill="#597CE9"/>
<path d="M774.74 239.95C773.31 239.95 772.04 239.61 770.94 238.92C769.84 238.23 768.97 237.23 768.34 235.9C767.7 234.58 767.39 232.95 767.39 231.02V183.24H775.49V228.13C775.49 229.84 775.92 231 776.77 231.6C777.62 232.21 778.6 232.51 779.7 232.51V239.12C778.98 239.4 778.21 239.6 777.39 239.74C776.56 239.88 775.68 239.95 774.74 239.95Z" fill="#597CE9"/>
<path d="M263.08 240.33C259.45 240.33 256.25 239.46 253.49 237.73C250.73 236 248.58 233.57 247.07 230.45C245.55 227.33 244.79 223.72 244.79 219.6C244.79 215.48 245.55 211.88 247.07 208.79C248.59 205.7 250.73 203.3 253.49 201.6C256.25 199.89 259.45 199.04 263.08 199.04C266.71 199.04 269.77 199.89 272.43 201.6C275.08 203.31 277.16 205.71 278.65 208.79C280.14 211.88 280.89 215.48 280.89 219.6C280.89 223.72 280.14 227.34 278.65 230.45C277.16 233.57 275.08 235.99 272.43 237.73C269.77 239.47 266.66 240.33 263.08 240.33ZM264.3 233.34C267.66 233.34 270.36 232.09 272.39 229.6C274.42 227.11 275.44 223.8 275.44 219.68C275.44 215.56 274.42 212.26 272.39 209.76C270.36 207.27 267.66 206.02 264.3 206.02C260.94 206.02 258.23 207.27 256.17 209.76C254.11 212.25 253.08 215.53 253.08 219.6C253.08 223.67 254.11 227.04 256.17 229.56C258.23 232.08 260.94 233.34 264.3 233.34ZM276.98 239.52L275.03 231.55H275.84V208.95H275.03V184.15H283.16V239.52H276.98Z" fill="#545456"/>
<path d="M319.18 240.33C315.17 240.33 311.63 239.48 308.57 237.77C305.51 236.06 303.14 233.66 301.46 230.57C299.78 227.48 298.94 223.88 298.94 219.76C298.94 215.64 299.78 211.95 301.46 208.87C303.14 205.78 305.51 203.37 308.57 201.63C311.63 199.9 315.17 199.03 319.18 199.03C323.19 199.03 326.79 199.9 329.83 201.63C332.87 203.37 335.24 205.78 336.94 208.87C338.65 211.96 339.5 215.59 339.5 219.76C339.5 223.93 338.65 227.48 336.94 230.57C335.23 233.66 332.86 236.06 329.83 237.77C326.79 239.48 323.25 240.33 319.18 240.33ZM319.18 232.53C322.81 232.53 325.72 231.35 327.92 228.99C330.12 226.63 331.21 223.56 331.21 219.76C331.21 215.96 330.11 212.8 327.92 210.41C325.72 208.03 322.81 206.83 319.18 206.83C315.55 206.83 312.72 208.01 310.52 210.37C308.33 212.73 307.23 215.83 307.23 219.68C307.23 223.53 308.33 226.63 310.52 228.99C312.72 231.35 315.6 232.53 319.18 232.53Z" fill="#545456"/>
<path d="M355.28 239.52V184.15H363.41V208.95H362.6V231.55H363.41L361.46 239.52H355.28ZM375.36 240.33C371.78 240.33 368.66 239.46 366.01 237.73C363.35 236 361.28 233.57 359.79 230.45C358.3 227.33 357.55 223.72 357.55 219.6C357.55 215.48 358.3 211.88 359.79 208.79C361.28 205.7 363.35 203.3 366.01 201.6C368.66 199.89 371.78 199.04 375.36 199.04C378.94 199.04 382.26 199.89 384.99 201.6C387.73 203.31 389.85 205.71 391.37 208.79C392.89 211.88 393.65 215.48 393.65 219.6C393.65 223.72 392.89 227.34 391.37 230.45C389.85 233.57 387.72 235.99 384.99 237.73C382.25 239.47 379.04 240.33 375.36 240.33ZM374.14 233.34C377.5 233.34 380.21 232.08 382.27 229.56C384.33 227.04 385.36 223.72 385.36 219.6C385.36 215.48 384.33 212.26 382.27 209.76C380.21 207.27 377.5 206.02 374.14 206.02C370.78 206.02 368.15 207.27 366.09 209.76C364.03 212.25 363 215.56 363 219.68C363 223.8 364.03 227.11 366.09 229.6C368.15 232.09 370.83 233.34 374.14 233.34Z" fill="#545456"/>
<path d="M144.01 291.64C183.995 291.64 216.41 259.225 216.41 219.24C216.41 179.254 183.995 146.84 144.01 146.84C104.024 146.84 71.6099 179.254 71.6099 219.24C71.6099 259.225 104.024 291.64 144.01 291.64Z" fill="#597CE9"/>
<path d="M128.52 235.81C124.61 231.61 122.66 226.09 122.66 219.24C122.66 212.39 124.61 206.87 128.52 202.67C130.88 200.13 133.71 198.37 136.97 197.37V183.03C132.63 183.72 128.65 185.07 125.05 187.12C119.6 190.21 115.38 194.5 112.39 200C109.4 205.5 107.9 211.96 107.9 219.39C107.9 226.82 109.39 233.14 112.39 238.64C115.38 244.14 119.6 248.41 125.05 251.45C128.65 253.46 132.63 254.79 136.97 255.47V241.12C133.71 240.12 130.88 238.36 128.52 235.82V235.81Z" fill="#F9FAFE"/>
<path d="M175.56 199.99C172.52 194.49 168.3 190.2 162.9 187.11C159.35 185.08 155.39 183.73 151.05 183.04V197.4C154.33 198.42 157.15 200.19 159.5 202.74C163.41 206.99 165.36 212.53 165.36 219.38C165.36 226.23 163.41 231.61 159.5 235.81C157.15 238.33 154.33 240.08 151.05 241.09V255.45C155.39 254.77 159.35 253.44 162.9 251.44C168.3 248.4 172.52 244.13 175.56 238.63C178.6 233.13 180.12 226.72 180.12 219.38C180.12 212.04 178.6 205.49 175.56 199.99Z" fill="#F9FAFE"/>
<path d="M144.01 228.24C148.98 228.24 153.01 224.211 153.01 219.24C153.01 214.27 148.98 210.24 144.01 210.24C139.039 210.24 135.01 214.27 135.01 219.24C135.01 224.211 139.039 228.24 144.01 228.24Z" fill="#F9FAFE"/>
</svg>
