<svg xmlns="http://www.w3.org/2000/svg" width="48" height="48" viewBox="0 0 48 48" fill="none" id="svg1876340771_1348">
<path d="M13.7143 9.64143H14.2143V9.14143V5.71286C14.2143 2.83471 16.549 0.5 19.4271 0.5C22.3098 0.5 24.6443 2.83496 24.6443 5.71286V9.14143V9.64143H25.1443H34.2857C36.5339 9.64143 38.3586 11.4661 38.3586 13.7143V22.8557V23.3557H38.8586H42.2871C45.165 23.3557 47.5 25.6902 47.5 28.5729C47.5 31.451 45.1653 33.7857 42.2871 33.7857H38.8586H38.3586V34.2857V43.4271C38.3586 45.6793 36.5342 47.5 34.2857 47.5H27.4286C26.4447 47.5 25.6443 46.6996 25.6443 45.7157V44.5714C25.6443 40.9267 22.5071 38.0184 18.7901 38.3911L18.7898 38.3911C15.5251 38.7204 13.2143 41.6857 13.2143 44.8971V45.7157C13.2143 46.6996 12.4139 47.5 11.43 47.5H4.57286C2.32043 47.5 0.5 45.6796 0.5 43.4271V36.57C0.5 35.5861 1.30043 34.7857 2.28429 34.7857H3.42857C7.07307 34.7857 9.98155 31.653 9.60894 27.9316L9.6089 27.9312C9.27961 24.6666 6.31425 22.3557 3.10286 22.3557H2.28429C1.30043 22.3557 0.5 21.5553 0.5 20.5714V13.7143C0.5 11.4658 2.32073 9.64143 4.57286 9.64143H13.7143Z" fill="white" fill-opacity="0.08" stroke="url(#svg1876340771_1348_paint0_linear_883_1024)"></path>
<defs>
<linearGradient id="svg1876340771_1348_paint0_linear_883_1024" x1="44.4" y1="-17.4" x2="18.6" y2="68.4" gradientUnits="userSpaceOnUse">
<stop stop-color="white"></stop>
<stop offset="0.611482" stop-color="#634CC9"></stop>
</linearGradient>
</defs>
</svg>