<svg xmlns="http://www.w3.org/2000/svg" xmlns:xlink="http://www.w3.org/1999/xlink" viewBox="0 0 100 24"><g id="ss1989560426_1"><path d="M 3.38 18.748 L 3.38 8.455 L 0 8.455 L 0 5.724 L 3.38 5.724 L 3.38 3.309 C 3.38 2.416 3.649 1.707 4.185 1.182 C 4.74 0.639 5.455 0.368 6.331 0.368 L 9.819 0.368 L 9.819 3.098 L 7.512 3.098 C 7.011 3.098 6.761 3.361 6.761 3.886 L 6.761 5.724 L 10.248 5.724 L 10.248 8.455 L 6.761 8.455 L 6.761 18.748 Z" fill="rgb(255,255,255)"></path><path d="M 10.719 18.748 L 10.719 5.724 L 14.046 5.724 L 14.046 7.195 L 14.528 7.195 C 14.725 6.67 15.047 6.284 15.494 6.039 C 15.959 5.794 16.496 5.672 17.104 5.672 L 18.714 5.672 L 18.714 8.613 L 17.05 8.613 C 16.192 8.613 15.485 8.84 14.931 9.295 C 14.376 9.733 14.099 10.416 14.099 11.344 L 14.099 18.748 Z" fill="rgb(255,255,255)"></path><path d="M 24.801 19.116 C 23.477 19.116 22.306 18.845 21.287 18.302 C 20.285 17.742 19.498 16.963 18.926 15.965 C 18.371 14.95 18.094 13.759 18.094 12.394 L 18.094 12.079 C 18.094 10.713 18.371 9.532 18.926 8.534 C 19.48 7.519 20.258 6.74 21.26 6.197 C 22.261 5.637 23.424 5.357 24.747 5.357 C 26.053 5.357 27.189 5.646 28.154 6.223 C 29.12 6.783 29.871 7.571 30.408 8.586 C 30.945 9.584 31.213 10.748 31.213 12.079 L 31.213 13.208 L 21.528 13.208 C 21.564 14.101 21.904 14.827 22.547 15.387 C 23.191 15.947 23.978 16.228 24.908 16.228 C 25.856 16.228 26.554 16.026 27.001 15.624 C 27.448 15.221 27.788 14.775 28.02 14.285 L 30.784 15.702 C 30.533 16.158 30.166 16.657 29.684 17.199 C 29.219 17.724 28.593 18.179 27.806 18.565 C 27.019 18.932 26.017 19.116 24.801 19.116 Z M 21.555 10.74 L 27.779 10.74 C 27.707 9.987 27.394 9.383 26.84 8.928 C 26.303 8.473 25.597 8.245 24.72 8.245 C 23.808 8.245 23.084 8.473 22.547 8.928 C 22.011 9.383 21.68 9.987 21.555 10.74 Z" fill="rgb(255,255,255)"></path><path d="M 32.075 18.748 L 32.075 5.724 L 35.455 5.724 L 35.455 18.748 Z M 33.765 4.201 C 33.157 4.201 32.639 4.009 32.209 3.624 C 31.798 3.239 31.592 2.731 31.592 2.101 C 31.592 1.47 31.798 0.963 32.209 0.578 C 32.639 0.193 33.157 0 33.765 0 C 34.391 0 34.91 0.193 35.321 0.578 C 35.733 0.963 35.938 1.47 35.938 2.101 C 35.938 2.731 35.733 3.239 35.321 3.624 C 34.91 4.009 34.391 4.201 33.765 4.201 Z" fill="rgb(255,255,255)"></path><path d="M 36.411 12.289 L 36.411 11.869 C 36.411 10.503 36.688 9.339 37.243 8.376 C 37.797 7.396 38.531 6.652 39.443 6.144 C 40.373 5.619 41.383 5.357 42.474 5.357 C 43.691 5.357 44.612 5.567 45.238 5.987 C 45.864 6.407 46.32 6.845 46.606 7.3 L 47.089 7.3 L 47.089 5.724 L 50.415 5.724 L 50.415 21.059 C 50.415 21.952 50.147 22.661 49.611 23.186 C 49.074 23.729 48.358 24 47.464 24 L 38.557 24 L 38.557 21.112 L 46.284 21.112 C 46.785 21.112 47.035 20.849 47.035 20.324 L 47.035 16.936 L 46.552 16.936 C 46.373 17.217 46.123 17.506 45.801 17.803 C 45.479 18.083 45.05 18.32 44.513 18.512 C 43.977 18.705 43.297 18.801 42.474 18.801 C 41.383 18.801 40.373 18.547 39.443 18.039 C 38.531 17.514 37.797 16.77 37.243 15.807 C 36.688 14.827 36.411 13.654 36.411 12.289 Z M 43.44 15.913 C 44.477 15.913 45.345 15.589 46.042 14.941 C 46.74 14.293 47.089 13.383 47.089 12.21 L 47.089 11.948 C 47.089 10.757 46.74 9.847 46.042 9.217 C 45.363 8.569 44.495 8.245 43.44 8.245 C 42.403 8.245 41.535 8.569 40.838 9.217 C 40.14 9.847 39.792 10.757 39.792 11.948 L 39.792 12.21 C 39.792 13.383 40.14 14.293 40.838 14.941 C 41.535 15.589 42.403 15.913 43.44 15.913 Z" fill="rgb(255,255,255)"></path><path d="M 52.017 18.748 L 52.017 0.368 L 55.397 0.368 L 55.397 7.326 L 55.88 7.326 C 56.023 7.046 56.247 6.766 56.551 6.486 C 56.855 6.206 57.257 5.978 57.758 5.803 C 58.277 5.611 58.929 5.514 59.716 5.514 C 60.754 5.514 61.657 5.751 62.426 6.223 C 63.213 6.678 63.821 7.317 64.25 8.14 C 64.68 8.945 64.894 9.891 64.894 10.976 L 64.894 18.748 L 61.514 18.748 L 61.514 11.239 C 61.514 10.258 61.263 9.523 60.763 9.033 C 60.28 8.543 59.582 8.298 58.67 8.298 C 57.633 8.298 56.828 8.639 56.256 9.322 C 55.683 9.987 55.397 10.923 55.397 12.131 L 55.397 18.748 Z" fill="rgb(255,255,255)"></path><path d="M 71.133 18.748 C 70.256 18.748 69.541 18.486 68.986 17.961 C 68.45 17.418 68.181 16.7 68.181 15.807 L 68.181 8.455 L 64.855 8.455 L 64.855 5.724 L 68.181 5.724 L 68.181 1.681 L 71.562 1.681 L 71.562 5.724 L 75.21 5.724 L 75.21 8.455 L 71.562 8.455 L 71.562 15.23 C 71.562 15.755 71.812 16.017 72.313 16.017 L 74.888 16.017 L 74.888 18.748 Z" fill="rgb(255,255,255)"></path><path d="M 81.716 19.116 C 80.392 19.116 79.221 18.845 78.201 18.302 C 77.2 17.742 76.412 16.963 75.84 15.965 C 75.286 14.95 75.008 13.759 75.008 12.394 L 75.008 12.079 C 75.008 10.713 75.286 9.532 75.84 8.534 C 76.395 7.519 77.173 6.74 78.174 6.197 C 79.176 5.637 80.338 5.357 81.662 5.357 C 82.967 5.357 84.103 5.646 85.069 6.223 C 86.035 6.783 86.786 7.571 87.322 8.586 C 87.859 9.584 88.127 10.748 88.127 12.079 L 88.127 13.208 L 78.442 13.208 C 78.478 14.101 78.818 14.827 79.462 15.387 C 80.106 15.947 80.893 16.228 81.823 16.228 C 82.771 16.228 83.468 16.026 83.915 15.624 C 84.362 15.221 84.702 14.775 84.935 14.285 L 87.698 15.702 C 87.448 16.158 87.081 16.657 86.598 17.199 C 86.133 17.724 85.507 18.179 84.72 18.565 C 83.933 18.932 82.932 19.116 81.716 19.116 Z M 78.469 10.74 L 84.693 10.74 C 84.622 9.987 84.309 9.383 83.754 8.928 C 83.218 8.473 82.511 8.245 81.635 8.245 C 80.723 8.245 79.998 8.473 79.462 8.928 C 78.925 9.383 78.594 9.987 78.469 10.74 Z" fill="rgb(255,255,255)"></path><path d="M 88.99 18.748 L 88.99 5.724 L 92.316 5.724 L 92.316 7.195 L 92.799 7.195 C 92.996 6.67 93.318 6.284 93.765 6.039 C 94.23 5.794 94.767 5.672 95.375 5.672 L 96.984 5.672 L 96.984 8.613 L 95.321 8.613 C 94.463 8.613 93.756 8.84 93.202 9.295 C 92.647 9.733 92.37 10.416 92.37 11.344 L 92.37 18.748 Z" fill="rgb(255,255,255)"></path><path d="M 97.451 19.116 C 96.736 19.116 96.128 18.888 95.627 18.433 C 95.144 17.961 94.903 17.357 94.903 16.621 C 94.903 15.886 95.144 15.291 95.627 14.836 C 96.128 14.363 96.736 14.127 97.451 14.127 C 98.185 14.127 98.793 14.363 99.276 14.836 C 99.758 15.291 100 15.886 100 16.621 C 100 17.357 99.758 17.961 99.276 18.433 C 98.793 18.888 98.185 19.116 97.451 19.116 Z" fill="rgb(255,255,255)"></path></g></svg>